<mxfile host="Electron" agent="Mozilla/5.0 (Windows NT 10.0; Win64; x64) AppleWebKit/537.36 (KHTML, like Gecko) draw.io/25.0.2 Chrome/128.0.6613.186 Electron/32.2.5 Safari/537.36" version="25.0.2" pages="2">
  <diagram name="Page-1" id="58cdce13-f638-feb5-8d6f-7d28b1aa9fa0">
    <mxGraphModel dx="1098" dy="822" grid="1" gridSize="10" guides="1" tooltips="1" connect="1" arrows="1" fold="1" page="1" pageScale="1" pageWidth="1100" pageHeight="850" background="none" math="0" shadow="0">
      <root>
        <mxCell id="0" />
        <mxCell id="1" parent="0" />
        <mxCell id="382b91b5511bd0f7-1" value="" style="ellipse;html=1;shape=startState;fillColor=#000000;strokeColor=#ff0000;rounded=1;shadow=0;comic=0;labelBackgroundColor=none;fontFamily=Verdana;fontSize=12;fontColor=#000000;align=center;direction=south;" parent="1" vertex="1">
          <mxGeometry x="50" y="135" width="30" height="30" as="geometry" />
        </mxCell>
        <mxCell id="382b91b5511bd0f7-5" value="&lt;span style=&quot;font-family: Helvetica;&quot;&gt;Picked sample&lt;/span&gt;" style="rounded=1;whiteSpace=wrap;html=1;arcSize=24;fillColor=#b0e3e6;strokeColor=#0e8088;shadow=0;comic=0;labelBackgroundColor=none;fontFamily=Verdana;fontSize=12;align=center;" parent="1" vertex="1">
          <mxGeometry x="240" y="380" width="120" height="60" as="geometry" />
        </mxCell>
        <mxCell id="01pO1KacWcKC29GbYGNJ-18" value="&#xa;&lt;span style=&quot;font-family: Helvetica; font-style: normal; font-variant-ligatures: normal; font-variant-caps: normal; letter-spacing: normal; orphans: 2; text-align: center; text-indent: 0px; text-transform: none; widows: 2; word-spacing: 0px; -webkit-text-stroke-width: 0px; white-space: nowrap; background-color: rgb(255, 255, 255); text-decoration-thickness: initial; text-decoration-style: initial; text-decoration-color: initial; float: none; display: inline !important;&quot;&gt;Drop sample&lt;/span&gt;&lt;div style=&quot;forced-color-adjust: none; font-family: Helvetica; font-style: normal; font-variant-ligatures: normal; font-variant-caps: normal; letter-spacing: normal; orphans: 2; text-align: center; text-indent: 0px; text-transform: none; widows: 2; word-spacing: 0px; -webkit-text-stroke-width: 0px; white-space: nowrap; text-decoration-thickness: initial; text-decoration-style: initial; text-decoration-color: initial;&quot;&gt;Wrist Up, Claw open&lt;/div&gt;&#xa;&#xa;" style="edgeStyle=orthogonalEdgeStyle;rounded=0;orthogonalLoop=1;jettySize=auto;html=1;entryX=0;entryY=0.5;entryDx=0;entryDy=0;fontColor=#000066;fontSize=12;fontStyle=1" edge="1" parent="1" source="382b91b5511bd0f7-6" target="382b91b5511bd0f7-7">
          <mxGeometry relative="1" as="geometry" />
        </mxCell>
        <mxCell id="382b91b5511bd0f7-6" value="&lt;div&gt;&lt;/div&gt;&lt;div&gt;&lt;span style=&quot;font-family: Helvetica;&quot;&gt;Ready to drop sample&lt;/span&gt;&lt;br&gt;&lt;/div&gt;" style="rounded=1;whiteSpace=wrap;html=1;arcSize=24;fillColor=#b0e3e6;strokeColor=#0e8088;shadow=0;comic=0;labelBackgroundColor=none;fontFamily=Verdana;fontSize=12;align=center;" parent="1" vertex="1">
          <mxGeometry x="240" y="120" width="120" height="60" as="geometry" />
        </mxCell>
        <mxCell id="3cde6dad864a17aa-3" style="edgeStyle=orthogonalEdgeStyle;html=1;exitX=1;exitY=0.25;entryX=0.5;entryY=0;labelBackgroundColor=none;endArrow=open;endSize=8;strokeColor=#ff0000;fontFamily=Verdana;fontSize=12;align=left;entryDx=0;entryDy=0;" parent="1" source="382b91b5511bd0f7-7" target="382b91b5511bd0f7-9" edge="1">
          <mxGeometry relative="1" as="geometry" />
        </mxCell>
        <mxCell id="01pO1KacWcKC29GbYGNJ-10" value="Move to Park, Arm lowered" style="edgeLabel;html=1;align=center;verticalAlign=middle;resizable=0;points=[];rounded=0;strokeColor=default;fontFamily=Helvetica;fontSize=12;fontColor=#000066;labelBackgroundColor=default;fontStyle=1" vertex="1" connectable="0" parent="3cde6dad864a17aa-3">
          <mxGeometry x="0.431" y="-4" relative="1" as="geometry">
            <mxPoint as="offset" />
          </mxGeometry>
        </mxCell>
        <mxCell id="382b91b5511bd0f7-7" value="&lt;span style=&quot;font-family: Helvetica;&quot;&gt;Sample dropped&lt;/span&gt;" style="rounded=1;whiteSpace=wrap;html=1;arcSize=24;fillColor=#b0e3e6;strokeColor=#0e8088;shadow=0;comic=0;labelBackgroundColor=none;fontFamily=Verdana;fontSize=12;align=center;" parent="1" vertex="1">
          <mxGeometry x="580" y="120" width="120" height="60" as="geometry" />
        </mxCell>
        <mxCell id="01pO1KacWcKC29GbYGNJ-11" style="edgeStyle=orthogonalEdgeStyle;rounded=0;orthogonalLoop=1;jettySize=auto;html=1;" edge="1" parent="1" source="382b91b5511bd0f7-9" target="01pO1KacWcKC29GbYGNJ-9">
          <mxGeometry relative="1" as="geometry" />
        </mxCell>
        <mxCell id="382b91b5511bd0f7-9" value="Parked" style="rounded=1;whiteSpace=wrap;html=1;arcSize=24;fillColor=#b0e3e6;strokeColor=#0e8088;shadow=0;comic=0;labelBackgroundColor=none;fontFamily=Verdana;fontSize=12;align=center;" parent="1" vertex="1">
          <mxGeometry x="745" y="380" width="120" height="60" as="geometry" />
        </mxCell>
        <mxCell id="2a3bc250acf0617d-9" style="edgeStyle=orthogonalEdgeStyle;html=1;labelBackgroundColor=none;endArrow=open;endSize=8;strokeColor=#ff0000;fontFamily=Verdana;fontSize=12;align=left;" parent="1" source="382b91b5511bd0f7-1" target="382b91b5511bd0f7-6" edge="1">
          <mxGeometry relative="1" as="geometry" />
        </mxCell>
        <mxCell id="01pO1KacWcKC29GbYGNJ-4" value="Move to drop pose&lt;div&gt;Stretch Arm on way&lt;/div&gt;&lt;div&gt;Wrist Down&lt;/div&gt;" style="edgeLabel;html=1;align=center;verticalAlign=middle;resizable=0;points=[];fontStyle=1;fontColor=#000099;" vertex="1" connectable="0" parent="2a3bc250acf0617d-9">
          <mxGeometry x="-0.225" y="-4" relative="1" as="geometry">
            <mxPoint x="8" y="-34" as="offset" />
          </mxGeometry>
        </mxCell>
        <mxCell id="2a3bc250acf0617d-11" style="edgeStyle=orthogonalEdgeStyle;html=1;entryX=0.667;entryY=-0.033;labelBackgroundColor=none;endArrow=open;endSize=8;strokeColor=#ff0000;fontFamily=Verdana;fontSize=12;align=left;exitX=0.5;exitY=1;entryDx=0;entryDy=0;entryPerimeter=0;" parent="1" source="382b91b5511bd0f7-7" target="01pO1KacWcKC29GbYGNJ-14" edge="1">
          <mxGeometry relative="1" as="geometry">
            <mxPoint x="520" y="300" as="sourcePoint" />
            <Array as="points" />
          </mxGeometry>
        </mxCell>
        <mxCell id="2a3bc250acf0617d-12" style="edgeStyle=orthogonalEdgeStyle;html=1;exitX=0.5;exitY=0;entryX=0.5;entryY=1;labelBackgroundColor=none;endArrow=open;endSize=8;strokeColor=#ff0000;fontFamily=Verdana;fontSize=12;align=left;entryDx=0;entryDy=0;exitDx=0;exitDy=0;" parent="1" source="382b91b5511bd0f7-5" target="382b91b5511bd0f7-6" edge="1">
          <mxGeometry relative="1" as="geometry" />
        </mxCell>
        <mxCell id="01pO1KacWcKC29GbYGNJ-20" value="Move Arm up, move to drop pose" style="edgeLabel;html=1;align=center;verticalAlign=middle;resizable=0;points=[];fontStyle=1;fontSize=12;fontColor=#000099;" vertex="1" connectable="0" parent="2a3bc250acf0617d-12">
          <mxGeometry x="0.19" y="1" relative="1" as="geometry">
            <mxPoint as="offset" />
          </mxGeometry>
        </mxCell>
        <mxCell id="01pO1KacWcKC29GbYGNJ-2" value="Start" style="text;html=1;align=center;verticalAlign=middle;whiteSpace=wrap;rounded=0;fillColor=#e51400;fontColor=#ffffff;strokeColor=#B20000;" vertex="1" parent="1">
          <mxGeometry x="35" y="165" width="60" height="30" as="geometry" />
        </mxCell>
        <mxCell id="01pO1KacWcKC29GbYGNJ-6" value="&lt;span style=&quot;font-family: Verdana;&quot;&gt;AU, A2D, A2L, PD, WD, CC&lt;/span&gt;" style="text;html=1;align=center;verticalAlign=middle;whiteSpace=wrap;rounded=0;fillColor=#fad7ac;strokeColor=#b46504;" vertex="1" parent="1">
          <mxGeometry x="255" y="70" width="90" height="40" as="geometry" />
        </mxCell>
        <mxCell id="01pO1KacWcKC29GbYGNJ-7" value="&lt;span style=&quot;font-family: Verdana;&quot;&gt;PE, AE&lt;/span&gt;" style="text;html=1;align=center;verticalAlign=middle;whiteSpace=wrap;rounded=0;fillColor=#fad7ac;strokeColor=#b46504;" vertex="1" parent="1">
          <mxGeometry x="870" y="400" width="120" height="20" as="geometry" />
        </mxCell>
        <mxCell id="01pO1KacWcKC29GbYGNJ-8" value="Arm2 will be locked after this" style="strokeWidth=1;shadow=0;dashed=0;align=center;html=1;shape=mxgraph.mockup.text.stickyNote2;fontColor=#666666;mainText=;fontSize=17;whiteSpace=wrap;fillColor=#ffffcc;strokeColor=#F62E00;fontFamily=Comic Sans MS;sketch=1;curveFitting=1;jiggle=2;" vertex="1" parent="1">
          <mxGeometry x="230" y="20" width="160" height="45" as="geometry" />
        </mxCell>
        <mxCell id="01pO1KacWcKC29GbYGNJ-9" value="" style="ellipse;html=1;shape=startState;fillColor=#000000;strokeColor=#ff0000;rounded=1;shadow=0;comic=0;labelBackgroundColor=none;fontFamily=Verdana;fontSize=12;fontColor=#000000;align=center;direction=south;" vertex="1" parent="1">
          <mxGeometry x="790" y="510" width="30" height="30" as="geometry" />
        </mxCell>
        <mxCell id="01pO1KacWcKC29GbYGNJ-12" value="End" style="text;html=1;align=center;verticalAlign=middle;whiteSpace=wrap;rounded=0;fillColor=#e51400;fontColor=#ffffff;strokeColor=#B20000;" vertex="1" parent="1">
          <mxGeometry x="775" y="540" width="60" height="30" as="geometry" />
        </mxCell>
        <mxCell id="01pO1KacWcKC29GbYGNJ-17" style="edgeStyle=orthogonalEdgeStyle;rounded=0;orthogonalLoop=1;jettySize=auto;html=1;entryX=1;entryY=0.5;entryDx=0;entryDy=0;" edge="1" parent="1" source="01pO1KacWcKC29GbYGNJ-14" target="382b91b5511bd0f7-5">
          <mxGeometry relative="1" as="geometry" />
        </mxCell>
        <mxCell id="01pO1KacWcKC29GbYGNJ-19" value="Pick Sample off ground" style="edgeLabel;html=1;align=center;verticalAlign=middle;resizable=0;points=[];fontStyle=1;fontSize=12;fontColor=#000099;" vertex="1" connectable="0" parent="01pO1KacWcKC29GbYGNJ-17">
          <mxGeometry x="-0.1" y="4" relative="1" as="geometry">
            <mxPoint as="offset" />
          </mxGeometry>
        </mxCell>
        <mxCell id="01pO1KacWcKC29GbYGNJ-14" value="&lt;span style=&quot;font-family: Helvetica;&quot;&gt;Ready to pick sample&lt;/span&gt;" style="rounded=1;whiteSpace=wrap;html=1;arcSize=24;fillColor=#b0e3e6;strokeColor=#0e8088;shadow=0;comic=0;labelBackgroundColor=none;fontFamily=Verdana;fontSize=12;align=center;" vertex="1" parent="1">
          <mxGeometry x="560" y="380" width="120" height="60" as="geometry" />
        </mxCell>
        <mxCell id="01pO1KacWcKC29GbYGNJ-15" value="&lt;span style=&quot;font-family: Verdana;&quot;&gt;AD,PSi,CO,WU&lt;/span&gt;" style="text;html=1;align=center;verticalAlign=middle;whiteSpace=wrap;rounded=0;fillColor=#fad7ac;strokeColor=#b46504;" vertex="1" parent="1">
          <mxGeometry x="575" y="450" width="90" height="40" as="geometry" />
        </mxCell>
        <mxCell id="01pO1KacWcKC29GbYGNJ-16" value="&lt;span style=&quot;font-family: Verdana;&quot;&gt;AD,PSi,CC,WD&lt;/span&gt;" style="text;html=1;align=center;verticalAlign=middle;whiteSpace=wrap;rounded=0;fillColor=#fad7ac;strokeColor=#b46504;" vertex="1" parent="1">
          <mxGeometry x="250" y="450" width="90" height="40" as="geometry" />
        </mxCell>
        <mxCell id="01pO1KacWcKC29GbYGNJ-63" value="Legend" style="shape=table;startSize=30;container=1;collapsible=0;childLayout=tableLayout;strokeColor=#b46504;fontSize=11;fillColor=#fad7ac;" vertex="1" parent="1">
          <mxGeometry x="230" y="620" width="696" height="230" as="geometry" />
        </mxCell>
        <mxCell id="01pO1KacWcKC29GbYGNJ-64" value="" style="shape=tableRow;horizontal=0;startSize=0;swimlaneHead=0;swimlaneBody=0;top=0;left=0;bottom=0;right=0;collapsible=0;dropTarget=0;points=[[0,0.5],[1,0.5]];portConstraint=eastwest;fontSize=11;fillColor=#fff2cc;strokeColor=#d6b656;fontFamily=Verdana;" vertex="1" parent="01pO1KacWcKC29GbYGNJ-63">
          <mxGeometry y="30" width="696" height="40" as="geometry" />
        </mxCell>
        <mxCell id="01pO1KacWcKC29GbYGNJ-65" value="Arm1" style="shape=partialRectangle;html=1;whiteSpace=wrap;connectable=0;overflow=hidden;top=0;left=0;bottom=0;right=0;pointerEvents=1;fontSize=11;fillColor=#fff2cc;strokeColor=#d6b656;fontFamily=Verdana;" vertex="1" parent="01pO1KacWcKC29GbYGNJ-64">
          <mxGeometry width="60" height="40" as="geometry">
            <mxRectangle width="60" height="40" as="alternateBounds" />
          </mxGeometry>
        </mxCell>
        <mxCell id="01pO1KacWcKC29GbYGNJ-66" value="AU -- Arm up in drop position" style="shape=partialRectangle;html=1;whiteSpace=wrap;connectable=0;overflow=hidden;top=0;left=0;bottom=0;right=0;pointerEvents=1;fontSize=11;fillColor=#fff2cc;strokeColor=#d6b656;fontFamily=Verdana;" vertex="1" parent="01pO1KacWcKC29GbYGNJ-64">
          <mxGeometry x="60" width="164" height="40" as="geometry">
            <mxRectangle width="164" height="40" as="alternateBounds" />
          </mxGeometry>
        </mxCell>
        <mxCell id="01pO1KacWcKC29GbYGNJ-67" value="AD -- Arm Down in pick position" style="shape=partialRectangle;html=1;whiteSpace=wrap;connectable=0;overflow=hidden;top=0;left=0;bottom=0;right=0;pointerEvents=1;fontSize=11;fillColor=#fff2cc;strokeColor=#d6b656;fontFamily=Verdana;" vertex="1" parent="01pO1KacWcKC29GbYGNJ-64">
          <mxGeometry x="224" width="236" height="40" as="geometry">
            <mxRectangle width="236" height="40" as="alternateBounds" />
          </mxGeometry>
        </mxCell>
        <mxCell id="01pO1KacWcKC29GbYGNJ-98" value="AE -- Arm End position" style="shape=partialRectangle;html=1;whiteSpace=wrap;connectable=0;overflow=hidden;top=0;left=0;bottom=0;right=0;pointerEvents=1;fontSize=11;fillColor=#fff2cc;strokeColor=#d6b656;fontFamily=Verdana;" vertex="1" parent="01pO1KacWcKC29GbYGNJ-64">
          <mxGeometry x="460" width="236" height="40" as="geometry">
            <mxRectangle width="236" height="40" as="alternateBounds" />
          </mxGeometry>
        </mxCell>
        <mxCell id="01pO1KacWcKC29GbYGNJ-68" value="" style="shape=tableRow;horizontal=0;startSize=0;swimlaneHead=0;swimlaneBody=0;top=0;left=0;bottom=0;right=0;collapsible=0;dropTarget=0;points=[[0,0.5],[1,0.5]];portConstraint=eastwest;fontSize=11;fillColor=#fff2cc;strokeColor=#d6b656;fontFamily=Verdana;" vertex="1" parent="01pO1KacWcKC29GbYGNJ-63">
          <mxGeometry y="70" width="696" height="40" as="geometry" />
        </mxCell>
        <mxCell id="01pO1KacWcKC29GbYGNJ-69" value="Pose" style="shape=partialRectangle;html=1;whiteSpace=wrap;connectable=0;overflow=hidden;top=0;left=0;bottom=0;right=0;pointerEvents=1;fontSize=11;fillColor=#fff2cc;strokeColor=#d6b656;fontFamily=Verdana;" vertex="1" parent="01pO1KacWcKC29GbYGNJ-68">
          <mxGeometry width="60" height="40" as="geometry">
            <mxRectangle width="60" height="40" as="alternateBounds" />
          </mxGeometry>
        </mxCell>
        <mxCell id="01pO1KacWcKC29GbYGNJ-70" value="PD -- Drop pose" style="shape=partialRectangle;html=1;whiteSpace=wrap;connectable=0;overflow=hidden;top=0;left=0;bottom=0;right=0;pointerEvents=1;fontSize=11;fillColor=#fff2cc;strokeColor=#d6b656;fontFamily=Verdana;" vertex="1" parent="01pO1KacWcKC29GbYGNJ-68">
          <mxGeometry x="60" width="164" height="40" as="geometry">
            <mxRectangle width="164" height="40" as="alternateBounds" />
          </mxGeometry>
        </mxCell>
        <mxCell id="01pO1KacWcKC29GbYGNJ-71" value="PSi -- Sample pick pose, for i-th sample&amp;nbsp;" style="shape=partialRectangle;html=1;whiteSpace=wrap;connectable=0;overflow=hidden;top=0;left=0;bottom=0;right=0;pointerEvents=1;fontSize=11;fillColor=#fff2cc;strokeColor=#d6b656;fontFamily=Verdana;" vertex="1" parent="01pO1KacWcKC29GbYGNJ-68">
          <mxGeometry x="224" width="236" height="40" as="geometry">
            <mxRectangle width="236" height="40" as="alternateBounds" />
          </mxGeometry>
        </mxCell>
        <mxCell id="01pO1KacWcKC29GbYGNJ-99" value="PE --Parking pose" style="shape=partialRectangle;html=1;whiteSpace=wrap;connectable=0;overflow=hidden;top=0;left=0;bottom=0;right=0;pointerEvents=1;fontSize=11;fillColor=#fff2cc;strokeColor=#d6b656;fontFamily=Verdana;" vertex="1" parent="01pO1KacWcKC29GbYGNJ-68">
          <mxGeometry x="460" width="236" height="40" as="geometry">
            <mxRectangle width="236" height="40" as="alternateBounds" />
          </mxGeometry>
        </mxCell>
        <mxCell id="01pO1KacWcKC29GbYGNJ-72" value="" style="shape=tableRow;horizontal=0;startSize=0;swimlaneHead=0;swimlaneBody=0;top=0;left=0;bottom=0;right=0;collapsible=0;dropTarget=0;points=[[0,0.5],[1,0.5]];portConstraint=eastwest;fontSize=11;fillColor=#fff2cc;strokeColor=#d6b656;fontFamily=Verdana;" vertex="1" parent="01pO1KacWcKC29GbYGNJ-63">
          <mxGeometry y="110" width="696" height="40" as="geometry" />
        </mxCell>
        <mxCell id="01pO1KacWcKC29GbYGNJ-73" value="Arm2" style="shape=partialRectangle;html=1;whiteSpace=wrap;connectable=0;overflow=hidden;top=0;left=0;bottom=0;right=0;pointerEvents=1;fontSize=11;fillColor=#fff2cc;strokeColor=#d6b656;fontFamily=Verdana;" vertex="1" parent="01pO1KacWcKC29GbYGNJ-72">
          <mxGeometry width="60" height="40" as="geometry">
            <mxRectangle width="60" height="40" as="alternateBounds" />
          </mxGeometry>
        </mxCell>
        <mxCell id="01pO1KacWcKC29GbYGNJ-74" value="A2L -- Arm 2 locked" style="shape=partialRectangle;html=1;whiteSpace=wrap;connectable=0;overflow=hidden;top=0;left=0;bottom=0;right=0;pointerEvents=1;fontSize=11;fillColor=#fff2cc;strokeColor=#d6b656;fontFamily=Verdana;" vertex="1" parent="01pO1KacWcKC29GbYGNJ-72">
          <mxGeometry x="60" width="164" height="40" as="geometry">
            <mxRectangle width="164" height="40" as="alternateBounds" />
          </mxGeometry>
        </mxCell>
        <mxCell id="01pO1KacWcKC29GbYGNJ-75" value="A2D -- Arm2 down" style="shape=partialRectangle;html=1;whiteSpace=wrap;connectable=0;overflow=hidden;top=0;left=0;bottom=0;right=0;pointerEvents=1;fontSize=11;fillColor=#fff2cc;strokeColor=#d6b656;fontFamily=Verdana;" vertex="1" parent="01pO1KacWcKC29GbYGNJ-72">
          <mxGeometry x="224" width="236" height="40" as="geometry">
            <mxRectangle width="236" height="40" as="alternateBounds" />
          </mxGeometry>
        </mxCell>
        <mxCell id="01pO1KacWcKC29GbYGNJ-100" style="shape=partialRectangle;html=1;whiteSpace=wrap;connectable=0;overflow=hidden;top=0;left=0;bottom=0;right=0;pointerEvents=1;fontSize=11;fillColor=#fff2cc;strokeColor=#d6b656;fontFamily=Verdana;" vertex="1" parent="01pO1KacWcKC29GbYGNJ-72">
          <mxGeometry x="460" width="236" height="40" as="geometry">
            <mxRectangle width="236" height="40" as="alternateBounds" />
          </mxGeometry>
        </mxCell>
        <mxCell id="01pO1KacWcKC29GbYGNJ-76" style="shape=tableRow;horizontal=0;startSize=0;swimlaneHead=0;swimlaneBody=0;top=0;left=0;bottom=0;right=0;collapsible=0;dropTarget=0;points=[[0,0.5],[1,0.5]];portConstraint=eastwest;fontSize=11;fillColor=#fff2cc;strokeColor=#d6b656;fontFamily=Verdana;" vertex="1" parent="01pO1KacWcKC29GbYGNJ-63">
          <mxGeometry y="150" width="696" height="40" as="geometry" />
        </mxCell>
        <mxCell id="01pO1KacWcKC29GbYGNJ-77" value="Claw" style="shape=partialRectangle;html=1;whiteSpace=wrap;connectable=0;overflow=hidden;top=0;left=0;bottom=0;right=0;pointerEvents=1;fontSize=11;fillColor=#fff2cc;strokeColor=#d6b656;fontFamily=Verdana;" vertex="1" parent="01pO1KacWcKC29GbYGNJ-76">
          <mxGeometry width="60" height="40" as="geometry">
            <mxRectangle width="60" height="40" as="alternateBounds" />
          </mxGeometry>
        </mxCell>
        <mxCell id="01pO1KacWcKC29GbYGNJ-78" value="CO -- Claw Open" style="shape=partialRectangle;html=1;whiteSpace=wrap;connectable=0;overflow=hidden;top=0;left=0;bottom=0;right=0;pointerEvents=1;fontSize=11;fillColor=#fff2cc;strokeColor=#d6b656;fontFamily=Verdana;" vertex="1" parent="01pO1KacWcKC29GbYGNJ-76">
          <mxGeometry x="60" width="164" height="40" as="geometry">
            <mxRectangle width="164" height="40" as="alternateBounds" />
          </mxGeometry>
        </mxCell>
        <mxCell id="01pO1KacWcKC29GbYGNJ-79" value="CC -- Claw Closed" style="shape=partialRectangle;html=1;whiteSpace=wrap;connectable=0;overflow=hidden;top=0;left=0;bottom=0;right=0;pointerEvents=1;fontSize=11;fillColor=#fff2cc;strokeColor=#d6b656;fontFamily=Verdana;" vertex="1" parent="01pO1KacWcKC29GbYGNJ-76">
          <mxGeometry x="224" width="236" height="40" as="geometry">
            <mxRectangle width="236" height="40" as="alternateBounds" />
          </mxGeometry>
        </mxCell>
        <mxCell id="01pO1KacWcKC29GbYGNJ-101" style="shape=partialRectangle;html=1;whiteSpace=wrap;connectable=0;overflow=hidden;top=0;left=0;bottom=0;right=0;pointerEvents=1;fontSize=11;fillColor=#fff2cc;strokeColor=#d6b656;fontFamily=Verdana;" vertex="1" parent="01pO1KacWcKC29GbYGNJ-76">
          <mxGeometry x="460" width="236" height="40" as="geometry">
            <mxRectangle width="236" height="40" as="alternateBounds" />
          </mxGeometry>
        </mxCell>
        <mxCell id="01pO1KacWcKC29GbYGNJ-80" style="shape=tableRow;horizontal=0;startSize=0;swimlaneHead=0;swimlaneBody=0;top=0;left=0;bottom=0;right=0;collapsible=0;dropTarget=0;points=[[0,0.5],[1,0.5]];portConstraint=eastwest;fontSize=11;fillColor=#fff2cc;strokeColor=#d6b656;fontFamily=Verdana;" vertex="1" parent="01pO1KacWcKC29GbYGNJ-63">
          <mxGeometry y="190" width="696" height="40" as="geometry" />
        </mxCell>
        <mxCell id="01pO1KacWcKC29GbYGNJ-81" value="Wrist" style="shape=partialRectangle;html=1;whiteSpace=wrap;connectable=0;overflow=hidden;top=0;left=0;bottom=0;right=0;pointerEvents=1;fontSize=11;fillColor=#fff2cc;strokeColor=#d6b656;fontFamily=Verdana;" vertex="1" parent="01pO1KacWcKC29GbYGNJ-80">
          <mxGeometry width="60" height="40" as="geometry">
            <mxRectangle width="60" height="40" as="alternateBounds" />
          </mxGeometry>
        </mxCell>
        <mxCell id="01pO1KacWcKC29GbYGNJ-82" value="WD -- Wrist Drop" style="shape=partialRectangle;html=1;whiteSpace=wrap;connectable=0;overflow=hidden;top=0;left=0;bottom=0;right=0;pointerEvents=1;fontSize=11;fillColor=#fff2cc;strokeColor=#d6b656;fontFamily=Verdana;" vertex="1" parent="01pO1KacWcKC29GbYGNJ-80">
          <mxGeometry x="60" width="164" height="40" as="geometry">
            <mxRectangle width="164" height="40" as="alternateBounds" />
          </mxGeometry>
        </mxCell>
        <mxCell id="01pO1KacWcKC29GbYGNJ-83" value="WU -- Wrist Up" style="shape=partialRectangle;html=1;whiteSpace=wrap;connectable=0;overflow=hidden;top=0;left=0;bottom=0;right=0;pointerEvents=1;fontSize=11;fillColor=#fff2cc;strokeColor=#d6b656;fontFamily=Verdana;" vertex="1" parent="01pO1KacWcKC29GbYGNJ-80">
          <mxGeometry x="224" width="236" height="40" as="geometry">
            <mxRectangle width="236" height="40" as="alternateBounds" />
          </mxGeometry>
        </mxCell>
        <mxCell id="01pO1KacWcKC29GbYGNJ-102" style="shape=partialRectangle;html=1;whiteSpace=wrap;connectable=0;overflow=hidden;top=0;left=0;bottom=0;right=0;pointerEvents=1;fontSize=11;fillColor=#fff2cc;strokeColor=#d6b656;fontFamily=Verdana;" vertex="1" parent="01pO1KacWcKC29GbYGNJ-80">
          <mxGeometry x="460" width="236" height="40" as="geometry">
            <mxRectangle width="236" height="40" as="alternateBounds" />
          </mxGeometry>
        </mxCell>
        <mxCell id="01pO1KacWcKC29GbYGNJ-103" value="&lt;span style=&quot;font-family: Verdana;&quot;&gt;AU, A2D, A2L, PD, WU, CO&lt;/span&gt;" style="text;html=1;align=center;verticalAlign=middle;whiteSpace=wrap;rounded=0;fillColor=#fad7ac;strokeColor=#b46504;" vertex="1" parent="1">
          <mxGeometry x="595" y="70" width="90" height="40" as="geometry" />
        </mxCell>
      </root>
    </mxGraphModel>
  </diagram>
  <diagram id="7qD2IVargYKgmIzAcpHm" name="MRC">
    <mxGraphModel dx="1098" dy="822" grid="1" gridSize="10" guides="1" tooltips="1" connect="1" arrows="1" fold="1" page="1" pageScale="1" pageWidth="850" pageHeight="1100" math="0" shadow="0">
      <root>
        <mxCell id="0" />
        <mxCell id="1" parent="0" />
        <mxCell id="RKtwyQ4oSzrwYHvSlKE--1" value="" style="ellipse;html=1;shape=startState;fillColor=#000000;strokeColor=#ff0000;rounded=1;shadow=0;comic=0;labelBackgroundColor=none;fontFamily=Verdana;fontSize=11;fontColor=#000000;align=center;direction=south;fontStyle=1" vertex="1" parent="1">
          <mxGeometry x="50" y="135" width="30" height="30" as="geometry" />
        </mxCell>
        <mxCell id="RKtwyQ4oSzrwYHvSlKE--3" value="" style="edgeStyle=orthogonalEdgeStyle;rounded=0;orthogonalLoop=1;jettySize=auto;html=1;entryX=0;entryY=0.5;entryDx=0;entryDy=0;fontColor=#000066;fontSize=11;fontStyle=1" edge="1" parent="1" source="RKtwyQ4oSzrwYHvSlKE--4" target="RKtwyQ4oSzrwYHvSlKE--7">
          <mxGeometry relative="1" as="geometry" />
        </mxCell>
        <mxCell id="RKtwyQ4oSzrwYHvSlKE--31" value="Read April Tag" style="edgeLabel;html=1;align=center;verticalAlign=middle;resizable=0;points=[];" vertex="1" connectable="0" parent="RKtwyQ4oSzrwYHvSlKE--3">
          <mxGeometry x="0.2727" y="-1" relative="1" as="geometry">
            <mxPoint as="offset" />
          </mxGeometry>
        </mxCell>
        <mxCell id="RKtwyQ4oSzrwYHvSlKE--4" value="&lt;div&gt;&lt;/div&gt;&lt;div&gt;&lt;span style=&quot;font-family: Helvetica;&quot;&gt;Deadwheel based Pose&lt;/span&gt;&lt;br&gt;&lt;/div&gt;" style="rounded=1;whiteSpace=wrap;html=1;arcSize=24;fillColor=#b0e3e6;strokeColor=#0e8088;shadow=0;comic=0;labelBackgroundColor=none;fontFamily=Verdana;fontSize=11;align=center;fontStyle=1" vertex="1" parent="1">
          <mxGeometry x="240" y="120" width="120" height="60" as="geometry" />
        </mxCell>
        <mxCell id="RKtwyQ4oSzrwYHvSlKE--27" style="edgeStyle=orthogonalEdgeStyle;rounded=0;orthogonalLoop=1;jettySize=auto;html=1;fontSize=11;fontStyle=1" edge="1" parent="1" source="RKtwyQ4oSzrwYHvSlKE--7" target="RKtwyQ4oSzrwYHvSlKE--19">
          <mxGeometry relative="1" as="geometry" />
        </mxCell>
        <mxCell id="RKtwyQ4oSzrwYHvSlKE--29" value="[April Tag not read or robot pose off less than error margin]&lt;div&gt;&lt;br&gt;&lt;/div&gt;&lt;div&gt;Do Nothing&lt;/div&gt;" style="edgeLabel;html=1;align=center;verticalAlign=middle;resizable=0;points=[];fontSize=11;fontStyle=1" vertex="1" connectable="0" parent="RKtwyQ4oSzrwYHvSlKE--27">
          <mxGeometry x="0.1789" y="-2" relative="1" as="geometry">
            <mxPoint x="17" y="80" as="offset" />
          </mxGeometry>
        </mxCell>
        <mxCell id="RKtwyQ4oSzrwYHvSlKE--7" value="&lt;span style=&quot;font-family: Helvetica;&quot;&gt;April Tag Read&lt;/span&gt;" style="rounded=1;whiteSpace=wrap;html=1;arcSize=24;fillColor=#b0e3e6;strokeColor=#0e8088;shadow=0;comic=0;labelBackgroundColor=none;fontFamily=Verdana;fontSize=11;align=center;fontStyle=1" vertex="1" parent="1">
          <mxGeometry x="580" y="120" width="120" height="60" as="geometry" />
        </mxCell>
        <mxCell id="RKtwyQ4oSzrwYHvSlKE--10" style="edgeStyle=orthogonalEdgeStyle;html=1;labelBackgroundColor=none;endArrow=open;endSize=8;strokeColor=#ff0000;fontFamily=Verdana;fontSize=11;align=left;fontStyle=1" edge="1" parent="1" source="RKtwyQ4oSzrwYHvSlKE--1" target="RKtwyQ4oSzrwYHvSlKE--4">
          <mxGeometry relative="1" as="geometry" />
        </mxCell>
        <mxCell id="RKtwyQ4oSzrwYHvSlKE--30" value="&lt;span style=&quot;font-weight: 700; text-wrap: wrap; background-color: rgb(251, 251, 251);&quot;&gt;Move based off Deadwheel&lt;/span&gt;" style="edgeLabel;html=1;align=center;verticalAlign=middle;resizable=0;points=[];" vertex="1" connectable="0" parent="RKtwyQ4oSzrwYHvSlKE--10">
          <mxGeometry x="-0.1875" y="1" relative="1" as="geometry">
            <mxPoint as="offset" />
          </mxGeometry>
        </mxCell>
        <mxCell id="RKtwyQ4oSzrwYHvSlKE--12" style="edgeStyle=orthogonalEdgeStyle;html=1;entryX=0.667;entryY=-0.033;labelBackgroundColor=none;endArrow=open;endSize=8;strokeColor=#ff0000;fontFamily=Verdana;fontSize=11;align=left;exitX=0.5;exitY=1;entryDx=0;entryDy=0;entryPerimeter=0;fontStyle=1" edge="1" parent="1" source="RKtwyQ4oSzrwYHvSlKE--7" target="RKtwyQ4oSzrwYHvSlKE--23">
          <mxGeometry relative="1" as="geometry">
            <mxPoint x="520" y="300" as="sourcePoint" />
            <Array as="points" />
          </mxGeometry>
        </mxCell>
        <mxCell id="RKtwyQ4oSzrwYHvSlKE--28" value="[April Tag read and robot pose off more than error margin]&lt;div&gt;&lt;br&gt;&lt;/div&gt;&lt;div&gt;Move based off error&lt;/div&gt;" style="edgeLabel;html=1;align=center;verticalAlign=middle;resizable=0;points=[];fontSize=11;fontStyle=1" vertex="1" connectable="0" parent="RKtwyQ4oSzrwYHvSlKE--12">
          <mxGeometry x="0.1477" y="-2" relative="1" as="geometry">
            <mxPoint x="-132" y="15" as="offset" />
          </mxGeometry>
        </mxCell>
        <mxCell id="RKtwyQ4oSzrwYHvSlKE--15" value="Start Pose" style="text;html=1;align=center;verticalAlign=middle;whiteSpace=wrap;rounded=0;fillColor=#e51400;fontColor=#ffffff;strokeColor=#B20000;fontSize=11;fontStyle=1" vertex="1" parent="1">
          <mxGeometry x="35" y="165" width="60" height="30" as="geometry" />
        </mxCell>
        <mxCell id="RKtwyQ4oSzrwYHvSlKE--19" value="" style="ellipse;html=1;shape=startState;fillColor=#000000;strokeColor=#ff0000;rounded=1;shadow=0;comic=0;labelBackgroundColor=none;fontFamily=Verdana;fontSize=11;fontColor=#000000;align=center;direction=south;fontStyle=1" vertex="1" parent="1">
          <mxGeometry x="775" y="400" width="30" height="30" as="geometry" />
        </mxCell>
        <mxCell id="RKtwyQ4oSzrwYHvSlKE--20" value="End Pose" style="text;html=1;align=center;verticalAlign=middle;whiteSpace=wrap;rounded=0;fillColor=#e51400;fontColor=#ffffff;strokeColor=#B20000;fontSize=11;fontStyle=1" vertex="1" parent="1">
          <mxGeometry x="760" y="430" width="60" height="30" as="geometry" />
        </mxCell>
        <mxCell id="RKtwyQ4oSzrwYHvSlKE--21" style="edgeStyle=orthogonalEdgeStyle;rounded=0;orthogonalLoop=1;jettySize=auto;html=1;entryX=0;entryY=0.5;entryDx=0;entryDy=0;fontSize=11;fontStyle=1" edge="1" parent="1" source="RKtwyQ4oSzrwYHvSlKE--23" target="RKtwyQ4oSzrwYHvSlKE--20">
          <mxGeometry relative="1" as="geometry">
            <mxPoint x="340" y="530" as="targetPoint" />
          </mxGeometry>
        </mxCell>
        <mxCell id="RKtwyQ4oSzrwYHvSlKE--23" value="&lt;span style=&quot;font-family: Helvetica;&quot;&gt;April Tag based Pose&lt;/span&gt;" style="rounded=1;whiteSpace=wrap;html=1;arcSize=24;fillColor=#b0e3e6;strokeColor=#0e8088;shadow=0;comic=0;labelBackgroundColor=none;fontFamily=Verdana;fontSize=11;align=center;fontStyle=1" vertex="1" parent="1">
          <mxGeometry x="330" y="415" width="120" height="60" as="geometry" />
        </mxCell>
        <mxCell id="RKtwyQ4oSzrwYHvSlKE--33" value="Move Read Correct Cycle" style="text;html=1;align=center;verticalAlign=middle;whiteSpace=wrap;rounded=0;fillColor=#cdeb8b;strokeColor=#36393d;fontColor=#000066;fontStyle=1;fontSize=16;" vertex="1" parent="1">
          <mxGeometry x="300" y="570" width="390" height="30" as="geometry" />
        </mxCell>
      </root>
    </mxGraphModel>
  </diagram>
</mxfile>
